<?xml version="1.0" encoding="UTF-8" standalone="no"?>
<svg
   width="150mm"
   height="75mm"
   viewBox="0 0 100 50"
   version="1.1"
   id="svg5"
   sodipodi:docname="logo.svg"
   inkscape:version="1.2.2 (732a01da63, 2022-12-09)"
   xmlns:inkscape="http://www.inkscape.org/namespaces/inkscape"
   xmlns:sodipodi="http://sodipodi.sourceforge.net/DTD/sodipodi-0.dtd"
   xmlns:xlink="http://www.w3.org/1999/xlink"
   xmlns="http://www.w3.org/2000/svg"
   xmlns:svg="http://www.w3.org/2000/svg">
  <sodipodi:namedview
     id="namedview8"
     pagecolor="#ffffff"
     bordercolor="#000000"
     borderopacity="0.24705882"
     inkscape:showpageshadow="2"
     inkscape:pageopacity="0"
     inkscape:pagecheckerboard="0"
     inkscape:deskcolor="#d1d1d1"
     inkscape:document-units="mm"
     showgrid="false"
     inkscape:zoom="1.4770342"
     inkscape:cx="221.72811"
     inkscape:cy="155.04042"
     inkscape:window-width="1920"
     inkscape:window-height="1009"
     inkscape:window-x="-8"
     inkscape:window-y="-8"
     inkscape:window-maximized="1"
     inkscape:current-layer="svg5" />
  <defs
     id="defs2">
    <inkscape:path-effect
       effect="powerclip"
       id="path-effect8592"
       is_visible="true"
       lpeversion="1"
       inverse="true"
       flatten="false"
       hide_clip="false"
       message="Use fill-rule evenodd on &lt;b&gt;fill and stroke&lt;/b&gt; dialog if no flatten result after convert clip to paths." />
    <linearGradient
       inkscape:collect="always"
       id="linearGradient1022">
      <stop
         style="stop-color:#00ff00;stop-opacity:1;"
         offset="0"
         id="stop1018" />
      <stop
         style="stop-color:#00ff00;stop-opacity:0;"
         offset="1"
         id="stop1020" />
    </linearGradient>
    <radialGradient
       inkscape:collect="always"
       xlink:href="#linearGradient1022"
       id="radialGradient1028"
       cx="5.3926969"
       cy="2.558017"
       fx="5.3926969"
       fy="2.558017"
       r="2.7509949"
       gradientTransform="matrix(1,0,0,0.41814595,0,1.4883926)"
       gradientUnits="userSpaceOnUse" />
    <clipPath
       clipPathUnits="userSpaceOnUse"
       id="clipPath8588">
      <path
         id="path8590"
         style="display:none;fill:#ffffff;stroke-width:0.176389"
         d="M 96.313889,25.396971 A 39.815061,19.421978 0 0 1 56.498828,44.818949 39.815061,19.421978 0 0 1 16.683769,25.396971 39.815061,19.421978 0 0 1 56.498828,5.9749928 39.815061,19.421978 0 0 1 96.313889,25.396971 Z" />
      <path
         id="lpe_path-effect8592"
         style="fill:#ffffff;stroke-width:0.176389"
         class="powerclip"
         d="M 0.2395172,-0.3761063 H 100.59892 V 51.170048 H 0.2395172 Z M 96.313889,25.396971 A 39.815061,19.421978 0 0 0 56.498828,5.9749928 39.815061,19.421978 0 0 0 16.683769,25.396971 39.815061,19.421978 0 0 0 56.498828,44.818949 39.815061,19.421978 0 0 0 96.313889,25.396971 Z" />
    </clipPath>
  </defs>
  <path
     id="path2410"
     style="fill:#0da71f;stroke-width:0.173657"
     d="M 95.598923,25.396971 A 45.179703,20.773077 0 0 1 50.41922,46.170048 45.179703,20.773077 0 0 1 5.2395172,25.396971 45.179703,20.773077 0 0 1 50.41922,4.6238937 45.179703,20.773077 0 0 1 95.598923,25.396971 Z"
     clip-path="url(#clipPath8588)"
     inkscape:path-effect="#path-effect8592"
     inkscape:original-d="M 95.598923,25.396971 A 45.179703,20.773077 0 0 1 50.41922,46.170048 45.179703,20.773077 0 0 1 5.2395172,25.396971 45.179703,20.773077 0 0 1 50.41922,4.6238937 45.179703,20.773077 0 0 1 95.598923,25.396971 Z" />
  <text
     xml:space="preserve"
     style="font-size:32.7865px;font-family:'Futura Md BT';-inkscape-font-specification:'Futura Md BT';fill:#ffffff;stroke-width:2.7322"
     x="22.695005"
     y="37.062019"
     id="text3972"><tspan
       sodipodi:role="line"
       id="tspan3970"
       style="fill:#0da61f;fill-opacity:1;stroke-width:2.7322"
       x="22.695005"
       y="37.062019">SGL</tspan></text>
</svg>
